# xmcd
#
# Track frame offsets: 
#        150
#        18276
#        38116
#        64843
#        86064
#        106899
#        129995
#        149523
#        167210
#        186414
#        201861
#
# Disc length: 2897 seconds
#
# Revision: 3
# Processed by: cddbd v1.5.2PL0 Copyright (c) Steve Scherf et al.
# Submitted via: ExactAudioCopyFreeDBPlugin 1.0
#
DISCID=9b0b4f0b
DTITLE=Beth Hart - Better Than Home
DYEAR=2015
DGENRE=Blues Rock
TTITLE0=Might As Well Smile
TTITLE1=Tell Them To Hold On
TTITLE2=Tell Her You Belong To Me
TTITLE3=Trouble
TTITLE4=Better Than Home
TTITLE5=St. Teresa
TTITLE6=We're Still Living In The City
TTITLE7=The Mood That I'm In
TTITLE8=Mechanical Heart
TTITLE9=As Long As I Have A Song
TTITLE10=Mama This One's For You
EXTD=Better Than Home is the seventh studio album by American singer-s
EXTD=ongwriter Beth Hart. It was released in April 2015 through Mascot
EXTD=Music Productions And Publishing BV.
EXTT0=
EXTT1=
EXTT2=
EXTT3=
EXTT4=
EXTT5=
EXTT6=
EXTT7=
EXTT8=
EXTT9=
EXTT10=
PLAYORDER=
